<?xml version="1.0" encoding="UTF-8" standalone="no"?>
<svg
   xmlns:dc="http://purl.org/dc/elements/1.1/"
   xmlns:cc="http://creativecommons.org/ns#"
   xmlns:rdf="http://www.w3.org/1999/02/22-rdf-syntax-ns#"
   xmlns:svg="http://www.w3.org/2000/svg"
   xmlns="http://www.w3.org/2000/svg"
   xmlns:sodipodi="http://sodipodi.sourceforge.net/DTD/sodipodi-0.dtd"
   xmlns:inkscape="http://www.inkscape.org/namespaces/inkscape"
   inkscape:version="1.0 (4035a4f, 2020-05-01)"
   sodipodi:docname="deadred-icon.svg"
   id="svg3324"
   viewBox="0, 0, 480, 480"
   height="480"
   width="480"
   y="0"
   x="0"
   version="1.1">
  <metadata
     id="metadata3330">
    <rdf:RDF>
      <cc:Work
         rdf:about="">
        <dc:format>image/svg+xml</dc:format>
        <dc:type
           rdf:resource="http://purl.org/dc/dcmitype/StillImage" />
        <dc:title></dc:title>
      </cc:Work>
    </rdf:RDF>
  </metadata>
  <defs
     id="defs3328" />
  <sodipodi:namedview
     inkscape:current-layer="Calque_1"
     inkscape:window-maximized="0"
     inkscape:window-y="0"
     inkscape:window-x="0"
     inkscape:cy="226.12897"
     inkscape:cx="172.99064"
     inkscape:zoom="2.8737416"
     showgrid="false"
     id="namedview3326"
     inkscape:window-height="1192"
     inkscape:window-width="2285"
     inkscape:pageshadow="2"
     inkscape:pageopacity="0"
     guidetolerance="10"
     gridtolerance="10"
     objecttolerance="10"
     borderopacity="1"
     bordercolor="#666666"
     pagecolor="#ffffff" />
  <g
     id="Calque_1">
    <path
       sodipodi:nodetypes="cccssssssccccccscsssssssscsccccccsccssssccsccc"
       style="fill:#a7b0ff;fill-opacity:1"
       id="path3317"
       fill="#000000"
       d="m 212.38278,155.61202 c 7.281,-4.997 -1.30278,1.72598 14.60922,1.03498 l 0.001,8.476 c 0.004,20.377 16.438,37.876 36.815,37.876 h 147.333 c 20.376,0 36.852,-17.499 36.852,-37.876 v -36.249 c 0,-20.377 -16.476,-36.875 -36.852,-36.875 H 263.808 c -20.377,0 -36.825,16.497 -36.815,36.875 l 0.005,8.407 c -19.204,0.772 -14.82122,-5.01698 -25.56322,2.35602 m -69.37361,68.46062 c -7.88349,15.55232 -8.04501,12.59264 -26.06817,14.87836 v -0.397 C 106.111,202.203 89.715,186.002 69.339,186.002 H 16 V 72 C 16,41.072 41.072,16 72,16 h 336 c 30.928,0 56,25.072 56,56 v 336 c 0,30.928 -25.072,56 -56,56 H 72 C 41.072,464 16,438.928 16,408 V 296.002 h 53.339 c 20.376,0 36.654,-16.505 36.654,-36.882 l -10e-4,-16.93 c 42.152,0.6035 20.9925,-4.40208 41.01787,4.16129 m 174.94353,84.85668 c 19.91325,8.97138 34.8997,5.79747 50.0356,5.05303 l 0.004,8.309 c 0.009,20.377 16.7,37.43 37.076,37.43 h 54.922 v -26 h -54.922 c -6.88,0 -12.078,-4.551 -12.078,-11.431 V 308.32 c 0,-6.88 5.198,-12.32 12.078,-12.32 h 54.922 v -24 h -54.922 c -20.376,0 -37.067,15.943 -37.076,36.32 l -0.003,8.588 c -7.84173,-1.85789 -24.8331,5.3151 -42.0641,-2.4984" />
    <path
       style="fill:#a7b0ff;fill-opacity:1"
       id="path3319"
       fill="#000000"
       d="m 16,211.002 h 53.339 c 6.88,0 12.653,4.989 12.653,11.869 v 36.249 c 0,6.88 -5.773,12.882 -12.653,12.882 H 16 Z" />
    <path
       style="fill:#a7b0ff;fill-opacity:1"
       id="path3321"
       fill="#000000"
       d="m 411.135,116.997 c 6.88,0 11.852,4.995 11.852,11.875 v 36.25 c 0,6.88 -4.972,11.876 -11.852,11.876 H 263.802 c -6.879,0 -12.812,-4.996 -12.812,-11.876 v -36.25 c 0,-6.879 5.933,-11.875 12.812,-11.875 z" />
  </g>
</svg>
