<?xml version="1.0" encoding="UTF-8" standalone="no"?><!-- Generator: Gravit.io --><svg xmlns="http://www.w3.org/2000/svg" xmlns:xlink="http://www.w3.org/1999/xlink" style="isolation:isolate" viewBox="0 0 40 60" width="40pt" height="60pt"><defs><clipPath id="_clipPath_vxaldel1rkRkVooPb6tSWqoJTSLoO1SZ"><rect width="40" height="60"/></clipPath></defs><g clip-path="url(#_clipPath_vxaldel1rkRkVooPb6tSWqoJTSLoO1SZ)"><path d=" M 28.336 7.034 L 6.336 7.077 L 6.336 53.035 L 38.336 53.035 L 38.336 17.035 L 28.336 7.034 L 28.336 7.034 L 28.336 7.034 Z  M 11.3 42.327 L 19.268 29.979 L 11.967 17.7 L 17.84 17.7 L 21.825 25.553 C 22.193 26.299 22.445 26.853 22.581 27.218 L 22.633 27.218 C 22.894 26.623 23.17 26.045 23.459 25.484 L 27.718 17.704 L 33.11 17.704 L 25.623 29.911 L 33.3 42.326 L 27.563 42.326 L 22.961 33.707 C 22.745 33.34 22.561 32.955 22.412 32.556 L 22.343 32.556 C 22.209 32.947 22.03 33.321 21.81 33.672 L 17.072 42.327 L 11.3 42.327 Z " fill-rule="evenodd" fill="rgb(255,255,255)"/></g></svg>