<?xml version="1.0" encoding="UTF-8" standalone="no"?>
<svg
   xmlns:dc="http://purl.org/dc/elements/1.1/"
   xmlns:cc="http://creativecommons.org/ns#"
   xmlns:rdf="http://www.w3.org/1999/02/22-rdf-syntax-ns#"
   xmlns:svg="http://www.w3.org/2000/svg"
   xmlns="http://www.w3.org/2000/svg"
   xmlns:sodipodi="http://sodipodi.sourceforge.net/DTD/sodipodi-0.dtd"
   xmlns:inkscape="http://www.inkscape.org/namespaces/inkscape"
   inkscape:version="1.0 (4035a4f, 2020-05-01)"
   sodipodi:docname="open_mind_logo.svg"
   width="895"
   height="895"
   viewbox="0 0 1932 2580"
   version="1.1"
   id="svg846">
  <sodipodi:namedview
     inkscape:current-layer="svg846"
     inkscape:window-maximized="0"
     inkscape:window-y="0"
     inkscape:window-x="0"
     inkscape:cy="-431.61505"
     inkscape:cx="346.92391"
     inkscape:zoom="0.28488372"
     fit-margin-bottom="0"
     fit-margin-right="0"
     fit-margin-left="0"
     fit-margin-top="0"
     showgrid="false"
     id="namedview1467"
     inkscape:window-height="1018"
     inkscape:window-width="1907"
     inkscape:pageshadow="2"
     inkscape:pageopacity="0"
     guidetolerance="10"
     gridtolerance="10"
     objecttolerance="10"
     borderopacity="1"
     bordercolor="#666666"
     pagecolor="#ffffff" />
  <metadata
     id="metadata852">
    <rdf:RDF>
      <cc:Work
         rdf:about="">
        <dc:format>image/svg+xml</dc:format>
        <dc:type
           rdf:resource="http://purl.org/dc/dcmitype/StillImage" />
        <dc:title></dc:title>
      </cc:Work>
    </rdf:RDF>
  </metadata>
  <defs
     id="defs850" />
  <g
     transform="translate(0,193.57927)"
     id="g2034">
    <path
       d="m 25.978762,86.799236 c 0,-31.13 27.794003,-67.82 96.723998,-66.15 121.436,-5.94 464.204,-2.91 635.934,5 93.14,1.67 107.51,35.71 114.52,102.280004 6.28,106.82 4.15,162.67 -1.12,273.5 -0.58,59.37 1.55,80.65 -84.49,86.72 -143.47,6.45 -585.722,-3.41 -644.276,-5.56 -83.382995,-3.34 -114.512998,-6.12 -121.738998,-87.83 -7.783,-90.06 -2.78,-251.26 4.447,-307.960004 z"
       id="border-open-mind"
       stroke-width="35"
       stroke="#ffffff"
       fill="#000000"
       __id__="_fcblack_scwhite_sw35_nmborder-open-mind_" />
    <path
       d="m 73.152765,246.93924 c -0.46,-20.72 3.55,-106.96 5.769,-126.93 6.658,-32.840004 16.421,-48.820004 56.948995,-51.740004 0,0 233.305,-4.63 233.305,-4.63 0,0 370.911,5.16 370.911,5.16 64.03,1.5 83.55,11.71 87.99,61.860004 0,0 3.49,120.58 3.49,120.58 0,0 -758.413995,-4.3 -758.413995,-4.3 z m 627.553995,42.16 c 0,0 -3.55,53.59 -3.77,80.33 0.33,6.22 1.22,10.21 4.66,10.21 0,0 35.94,0.44 35.94,0.44 11.54,-1.77 12.19,-98.26 11.99,-98.08 -0.22,-9.1 -1.78,-15.98 -9.32,-15.98 0,0 -22.19,0 -22.19,0 -17.76,1.78 -15.54,11.1 -17.31,23.08 z m 0.89,101.19 c -5.33,1.33 -6,2.89 -6.88,7.99 0,0 -0.23,14.87 -0.23,14.87 1.11,3.88 1.67,3.77 6.22,3.99 0,0 31.29,0.67 31.29,0.67 4.88,-0.45 6.88,-0.22 7.54,-5.99 0,0 0.89,-13.32 1.11,-13.54 -0.44,-4.77 -0.44,-5.77 -7.1,-6.66 0,0 -31.95,-1.11 -31.95,-1.33 z m -156.63,28.91 c -10.46,-0.58 -13.07,-0.29 -13.65,-12.78 -0.29,-31.09 4.65,-99.64 7.26,-125.79 1.45,-12.49 4.07,-15.39 17.72,-15.68 0,0 51.42,-0.29 51.42,-0.58 44.73,1.74 50.5,37.1 48.51,74.07 -2.1,39.01 -15.98,80.18 -62.75,80.76 0,0 -48.51,0 -48.51,0 z m -44.73,-156.58 c 13.94,2.04 16.26,4.07 16.55,16.85 0,0 -4.94,121.72 -4.94,121.72 -0.58,8.42 -2.9,20.04 -13.07,19.46 -0.29,0 -28.17,-0.29 -28.17,-0.29 0,0 -47.064,-78.14 -47.064,-78.14 0,0 -1.453,59.55 -1.162,59.55 -1.453,10.46 -2.034,18.88 -13.944,19.17 0,0 -23.239,-0.58 -23.239,-0.58 -7.553,0.29 -10.167,-6.68 -9.005,-14.23 -0.581,-23.24 4.357,-114.46 6.681,-130.73 1.453,-9 0,-12.78 11.62,-13.36 0.29,0 28.758,0.29 28.758,0.29 0,0 47.935,68.56 47.935,68.56 0,0 4.93,-59.84 4.93,-59.84 0.3,-5.81 1.17,-7.27 8.72,-8.43 0,0 15.4,0 15.4,0 z m -192.89,21.21 c 0.871,-16.27 1.452,-22.08 18.882,-23.24 0,0 14.815,0 14.815,0 10.748,-0.58 13.943,4.36 12.2,15.98 -3.486,28.17 -6.391,97.02 -6.1,128.1 -0.581,7.56 0.29,15.11 -16.267,14.82 0,0 -19.173,0 -18.882,0 -8.425,-0.29 -9.586,-5.81 -11.329,-22.37 -0.872,-26.43 4.357,-93.83 6.681,-113.29 z m -134.933,119.24 c 0.214,1.07 0.994,-66.62 -0.145,-77.99 0,0 24.692,24.98 24.692,24.98 4.067,3.92 7.407,5.23 10.893,0.73 0,0 16.703,-17.29 16.703,-17.29 -1.016,15.83 -3.34,52 -2.324,66.52 0.291,11.91 2.034,14.82 10.167,15.98 0,0 24.983,1.16 24.983,1.16 8.86,-0.58 9.005,-2.32 11.764,-13.79 3.922,-24.55 5.665,-104.44 5.665,-122.45 0.29,-9.58 -2.033,-17.72 -11.91,-18.59 0,0 -19.172,-0.29 -19.172,-0.29 -5.229,-0.58 -7.553,1.16 -10.749,4.65 0,0 -29.339,40.09 -29.339,40.09 0,0 -38.345,-43 -38.345,-43 0,0 -32.244,-1.45 -31.954,-1.45 -10.748,1.75 -10.167,6.39 -10.167,12.49 -6.1,24.11 -6.391,98.19 -4.067,127.82 0,10.75 5.229,15.54 11.329,16.41 0.291,0 31.519,0.44 31.519,0.44 9.005,-0.73 10.021,-3.34 10.457,-16.42 z"
       id="text"
       stroke-width="1"
       stroke="#ffffff"
       fill="#ffffff"
       __id__="_fcwhite_scwhite_sw1_nmtext_" />
    <path
       d="m 578.98676,294.24924 c -1.04,0 -6.36,92.68 -6.36,92.68 44.39,1.34 43.16,-18.4 47.75,-46.87 -1.25,-19.38 2.86,-40.97 -41.39,-45.81 z M 153.92976,84.549236 c -35.038,32.610004 -32.445,45.060004 -36.983,75.040004 -0.359,60.32 26.57,70.74 58.886,76.84 40.932,-6.46 59.963,-35.55 64.347,-64.2 7.464,-59.67 -38.136,-111.380004 -86.25,-87.680004 z m 114.54,13.64 c 10e-4,-9.5 0.718,-19.39 12.113,-20.23 19.125,-2.39 30.974,-2.39 51.797,3.11 48.116,22.870004 28.368,77.450004 11.851,88.940004 -8.258,6.1 -39.653,23.52 -39.822,19.83 0,0 -0.751,34.38 -0.751,34.38 0.359,6.47 -2.873,11.85 -12.716,11.21 0,0 -19.683,0 -19.683,0 -1.712,-28.8 -3.866,-110.67 -2.789,-137.240004 z m 125.671,-5.38 c 0.401,-11.35 9.207,-14.29 15.439,-14.36 0,0 66.067,0.35 66.067,0.35 2.87,4.67 2.15,21.550004 -0.36,26.220004 0,0 -43.45,0 -43.45,0 -2.868,3.59 -2.868,29.08 -1.07,32.67 11.51,2.34 24.05,-2.51 36.29,-0.68 1.22,5.33 3.21,25.1 -2.18,31.2 0,0 -32.01,-0.12 -32.01,-0.12 -5.334,12.69 -5.693,21.3 -2.821,30.64 0,0 34.111,0 34.111,0 7.9,0.72 8.26,2.87 8.1,9.4 0.64,8.02 0.43,19 -4.53,23.87 -45.613,2.5 -76.459,5.87 -76.657,-18.65 0,-0.79 -2.025,-83.65 3.071,-120.540004 z m 132.996,-4.49 c -4.45,35.730004 -0.86,112.920004 0,134.670004 0.21,8.41 2.01,10.93 11.4,10.36 0,0 28.31,0.57 28.31,0.57 4.93,-15.04 -0.1,-67.78 3.23,-71.81 4.22,4.04 41.85,72.89 44.17,72.88 0,0 30.2,0 31.23,0 12.57,1.08 10.78,-14.72 10.12,-29.61 0.61,-12.12 1.37,-86.9 1.37,-112.210004 0.09,-10.69 -0.89,-11.67 -5.74,-12.21 0,0 -20.11,-0.36 -20.11,-0.36 -9.67,-0.83 -14.72,0 -16.96,8.76 -1.65,-3.09 -1.53,65.330004 -3.11,73.550004 -5.1,-3.18 -30.87,-70.520004 -45.64,-84.460004 0,0 -24.41,-2.16 -24.41,-2.16 -10.34,2.56 -12.21,4.31 -13.86,12.03 z m 179.99,26.940004 c -7.7,0.33 -7.36,0 -7.7,-9.04 0,0 -0.67,-14.050004 -0.67,-14.050004 0.67,-7.03 0.67,-9.37 12.38,-10.37 10.43,-0.62 33.8,-1.34 47.51,2.68 25.76,10.7 15.06,56.200004 8.36,62.230004 -23.08,16.72 -23.08,38.81 -22.75,54.86 0,0 -23.4,-0.33 -23.4,-0.33 -6.37,0.67 -6.71,-2.01 -6.21,-7.25 -1.84,-12.82 8.53,-41.6 13.47,-48.69 0,0 13.8,-13.98 13.8,-13.98 7.7,-11.38 2.68,-16.4 -6.02,-16.4 0,0 -28.77,0.34 -28.77,0.34 z m 11.71,99.53 c 0,0 16.39,0.17 16.39,0.17 8.87,0 7.86,1.17 9.46,5.96 0,0 0.58,8.09 0.58,8.09 -1.34,8.03 -2.51,10.54 -10.38,10.71 0,0 -17.39,-0.67 -17.39,-0.67 -5.69,-0.84 -6.53,-0.67 -7.7,-7.7 0,0 0,-10.04 0,-10.04 1.68,-5.68 2.01,-6.02 9.04,-6.52 z"
       id="text2"
       stroke-width="1"
       stroke="#ffffff"
       fill="#000000"
       __id__="_fcblack_scwhite_sw1_nmtext2_" />
    <path
       d="m 174.75476,120.09924 c 15.799,-0.18 30.88,15.26 36.984,33.75 0.718,22.98 -3.412,37.34 -21.724,43.8 -26.929,1.08 -32.674,-11.85 -36.803,-40.21 0.359,-15.08 2.872,-31.24 21.543,-37.34 z m 128.723,-8.8 c -1.173,4.66 -1.975,31.96 -0.718,45.96 1.795,2.33 4.309,1.79 6.822,0.72 0,0 21.903,-14.72 21.903,-14.72 1.256,-9.88 1.436,-9.7 -0.898,-18.86 0.311,0 -8.075,-13.32 -27.109,-13.1 z"
       id="text3"
       stroke-width="1"
       stroke="#ffffff"
       fill="#ffffff"
       __id__="_fcwhite_scwhite_sw1_nmtext3_"
       inkscape:label="text3" />
  </g>
</svg>
